<?xml version="1.0" encoding="utf-8"?>
<!-- Generator: Adobe Illustrator 28.1.0, SVG Export Plug-In . SVG Version: 6.00 Build 0)  -->
<svg version="1.1"
	 id="svg1" xmlns:svg="http://www.w3.org/2000/svg" xmlns:inkscape="http://www.inkscape.org/namespaces/inkscape" xmlns:sodipodi="http://sodipodi.sourceforge.net/DTD/sodipodi-0.dtd" inkscape:version="1.4.4 (dcaf3e7d9e, 2026-05-05)" sodipodi:docname="logo_9.svg"
	 xmlns="http://www.w3.org/2000/svg" xmlns:xlink="http://www.w3.org/1999/xlink" x="0px" y="0px" viewBox="0 0 259.2 334.2"
	 style="enable-background:new 0 0 259.2 334.2;" xml:space="preserve">
<style type="text/css">
	.st0{fill:#C55725;}
</style>
<sodipodi:namedview  bordercolor="#000000" borderopacity="0.25" id="namedview1" inkscape:current-layer="g1" inkscape:cx="469.5189" inkscape:cy="576.99913" inkscape:deskcolor="#d1d1d1" inkscape:pagecheckerboard="0" inkscape:pageopacity="0.0" inkscape:showpageshadow="2" inkscape:window-height="958" inkscape:window-maximized="1" inkscape:window-width="1920" inkscape:window-x="0" inkscape:window-y="0" inkscape:zoom="0.70710678" pagecolor="#ffffff">
	</sodipodi:namedview>
<g id="g1" inkscape:groupmode="layer" inkscape:label="Image">
	<path id="path54" d="M160.7,333.1c-1.2-0.7-4-1-7.8-1.1c-5,0-6.2-0.3-7.5-1.5c-0.8-0.8-1.5-1.9-1.5-2.5c0-1-8.4-1.8-19.8-1.9
		c-1.9,0-4.3-0.4-5.3-0.8c-1-0.4-3.2-0.7-4.7-0.7c-2,0-3.6-0.6-5.9-2.4c-5.6-4.3-6.9-9-4.7-17.3c0.6-2.2,1.1-5.1,1.1-6.4
		c0-2.7,1.6-4.4,6.6-6.9c3.7-1.9,5.2-4.8,3.7-7.2c-1.1-1.8,0-3.5,2.2-3.5c1.6,0,1.9,2.8,0.5,4.2c-0.6,0.6-0.5,1.7,0.5,4.2
		c1.5,3.8,0.9,7.4-1.8,10.5c-0.8,0.9-1.5,2.6-1.5,3.7c0,1.9,0.4,2.1,7.1,4.3c7.7,2.4,9,2.6,11.1,1.5c1.3-0.7,1.3-0.9,0.3-3.3
		c-0.6-1.4-0.9-3.2-0.7-3.9c0.3-0.8-0.3-2.4-1.4-4c-1.9-2.8-3.1-7-2.3-8.3c1.3-2.1,4.5,0,3.6,2.4c-0.4,1.1,2.1,3.6,5.1,5
		c1.2,0.6,2.6,2,3.2,3.1l1,2.1l1-2.3c0.5-1.3,2-3.5,3.2-5s2.2-3.5,2.2-4.6c0-1.8,1.4-4,4.5-7.4c0.9-1,1.2-2.5,1-6.5l-0.2-5.2
		l-2.1,0.2c-1.1,0.1-3.1,0.5-4.3,0.9c-1.2,0.4-5.1,1-8.7,1.4s-7.8,1-9.2,1.2c-2.6,0.4-2.7,0.4-3.2-2.1c-0.3-1.4-0.4-5-0.2-7.9
		l0.2-5.4l-3.4-3.6c-7.4-7.9-17.8-22.7-38-54c-3.2-4.9-6-8.8-6.2-8.7s-8.5,8.6-18.2,18.8s-25,26.1-33.8,35.3S9.1,265.6,7.6,267.3
		c-2.2,2.5-3.2,3.1-5.2,3.1c-2.1,0-2.5-0.3-2.4-1.6c0.1-3.3-1.7-1.2,38.2-42.7c4.8-5,15.9-16.6,24.7-25.8
		c15-15.8,25.6-26.9,41.8-43.6c3.9-4,18.4-19.2,32.4-33.8c13.9-14.6,28.6-29.9,32.7-34.1c4-4.1,7.7-7.9,8.1-8.4s15-15.7,32.4-33.9
		s34.5-36.1,38.1-39.8c3.5-3.7,6.9-6.7,7.4-6.7c0.6,0,1.5,1.1,2.2,2.5l1.2,2.5l-5.1,5.2l-5.1,5.2l-0.5,15.7
		c-0.3,8.6-0.6,16.9-0.8,18.3c-0.1,1.4-0.5,9.3-0.7,17.5s-0.6,17.2-0.8,20c-0.2,2.8-0.5,11.1-0.7,18.5s-0.5,16.4-0.7,20
		c-1.2,25.4-1.3,27.3-0.3,27.3c1.8,0,5.3,3.3,4.6,4.4c-0.5,0.7-0.8,0.6-1.2-0.7c-0.3-0.9-0.8-1.5-1-1.3s0,1.1,0.4,1.9
		c0.7,1.3,0.3,2.2-2.1,6.1c-1.6,2.5-4.7,6-6.9,7.8s-4,3.7-4,4.1c0,0.5-2.6,2.8-5.7,5.3c-26.7,21.1-31.3,25.1-33.5,29.8
		c-1.1,2.2-2.7,5.4-3.6,7c-1.4,2.5-2.5,7.5-6.1,26.5c-0.9,4.5-3.3,7.3-10.4,12c-5.4,3.6-6.2,5.1-3.8,7.4c1.5,1.5,2.1,1.7,3.3,1
		c2.8-1.5,4.5-1,5.6,1.7c0.6,1.4,1.1,3.1,1.1,3.9c0,0.7,0.8,1.7,1.8,2.2c1.6,0.7,1.8,1.2,1.5,3.6c-0.2,1.5,0,5.1,0.5,8.1
		c0.7,4.2,1.3,5.7,2.9,7.4c1.6,1.6,2.1,2.8,2.1,4.9c0,1.6-0.2,3.1-0.5,3.3c-0.3,0.3-0.5,5.6-0.4,11.8l0.1,11.3l-3.8,2.5
		c-2.1,1.4-4.6,2.5-5.6,2.5s-4.1,1.6-6.9,3.6C167,334.4,164.2,335.1,160.7,333.1L160.7,333.1z M172.2,328.8c2.5-1.8,5.8-3.4,7.2-3.7
		c1.5-0.3,3.9-1.5,5.4-2.6l2.7-2.1v-7.7c0-7.5,0-7.7-1.4-6.4c-0.8,0.7-1.4,1.9-1.4,2.6c0,6.4-9.2,15.1-15.8,15.1
		c-1.9,0-4.6,0.7-6.7,1.8c-5,2.5-9.6,3.4-13.2,2.6c-2.6-0.6-2.9-0.5-2,0.3c0.7,0.7,2.8,1.1,6,1.1c2.7,0.1,6.5,0.5,8.4,1
		C166.5,332.4,167.3,332.2,172.2,328.8L172.2,328.8z M164.3,322.5c11.2-4.6,14.8-7.7,16.3-14c0.4-1.9,0.3-2-1.9-2
		c-8.2-0.1-23.1-6.6-27.4-12l-1.4-1.8l-1.7,2.4c-0.9,1.3-2.1,2.6-2.6,3c-0.5,0.3-0.9,1.3-0.9,2.1c0,4.3-7.5,10.8-13.1,11.3
		c-3.8,0.3-14.5-2.5-16.8-4.4c-2.2-1.9-1.6-6.2,1.3-9.1c0.6-0.6,1-2.5,1-4.7c0-2.1-0.3-3.4-0.5-3c-0.7,1.1-7.2,5.4-8,5.4
		c-1.3,0-2.2,1.8-2.6,5.5c-0.2,2-0.7,4.8-1.2,6.2c-1.2,3.9-0.9,6.1,1.1,9.7c2.2,4,5.7,6.3,9.1,6.2c1.4-0.1,3.2,0.3,4,0.7
		s6.5,0.9,13,1c6.3,0.1,13.7,0.6,16.3,1.1c2.7,0.5,5.3,0.8,5.9,0.7C154.8,326.4,159.3,324.6,164.3,322.5L164.3,322.5z M138.8,305.9
		c1.6-1.3,1.7-1.4,0.6-3.9c-0.6-1.4-1.9-3-2.8-3.5s-2.4-1.5-3.3-2.4c-2-1.8-2.1-0.6-0.2,1.9c0.8,1,1.5,2.5,1.5,3.3
		c0,1.8,1.5,6,2.1,6C136.9,307.2,137.8,306.6,138.8,305.9L138.8,305.9z M186.5,303c0.2-0.3-1.9-0.3-4.5-0.2
		c-10.1,0.5-19.6-2.9-27.1-9.8c-4.7-4.4-5.7-4.6-2.1-0.3c5.1,5.9,14.2,10,23.9,10.8C183.5,304,185.9,303.9,186.5,303L186.5,303z
		 M184.5,299.9c3.9-1.2,4.9-4.4,2.4-7.8c-1.3-1.8-1.9-2-6.2-2.1c-5.9-0.1-8.9-1.5-9.3-4.3c-0.2-1.7-0.9-2.3-4.2-3.6
		c-3-1.2-4.2-2.1-4.7-3.6c-1.1-3.1-1.8-3.9-3.3-3.9c-0.7,0-1.8-0.5-2.4-1.1c-1.4-1.4-2-0.7-2,2c0,3.5,2.6,6.6,6.8,8.1
		c2.6,0.9,4.9,2.5,7.5,5.2c4.2,4.4,5.4,5,11.6,5.7c2.4,0.3,4.9,0.8,5.5,1.2c0.7,0.5-0.3,0.6-3.3,0.3c-7.6-0.8-9.8-1.7-14.1-5.8
		c-3.9-3.7-7.8-6.2-9.6-6.2c-0.5,0-1.4-0.5-2.1-1.1c-1-0.9-1.4-0.8-3.1,1.4l-1.9,2.4l1.9,2.3c3.1,3.7,8.2,7,13.3,8.6
		C176.8,300.7,180.4,301.1,184.5,299.9L184.5,299.9z M131.5,291c0.2-0.8-0.1-1.1-0.9-0.8c-1.3,0.5-1.6,2.7-0.2,2.3
		C130.8,292.4,131.4,291.7,131.5,291L131.5,291z M184,287.3c0-2.6-0.8-3.2-3.5-2.6c-2,0.4-3.2,0.3-4.7-0.6c-2.2-1.3-2.8-2.8-0.8-2
		c1.4,0.6,2.2,0.6,5.8,0.2l2.3-0.3l-0.1-4.7c-0.1-4.2-0.3-4.7-1.6-4.7c-0.8,0-1.4-0.4-1.3-0.9c0.2-1-0.5-1.1-2.3-0.5
		c-0.6,0.2-1.2,0.9-1.2,1.5s-0.3,0.9-0.7,0.6c-1.4-0.9-0.7-3.3,1.4-4.6c1.7-1,2-1.6,1.5-2.9c-0.3-0.9-1-1.6-1.4-1.6
		c-1.1,0-5,2.1-7.7,4.1c-1.2,0.9-2.6,1.7-3.1,1.7c-1.6,0-0.8-1.3,2.1-3.3c2.6-1.8,2.8-2.1,1.7-2.9c-1-0.8-1.8-0.3-5.1,3.3
		c-3.4,3.7-4.1,4.1-6.2,3.8c-1.9-0.3-2.2-0.1-1.5,0.6c0.5,0.5,1.8,1,3,1.1c1.7,0.1,2.3-0.2,2.6-1.6c0.7-2.7,2.1-2.1,1.5,0.6
		c-0.6,2.7-0.5,2.4-0.4,5c0.1,1.6,0.8,2.3,4.1,3.8c3,1.4,4.3,2.4,4.9,4.1c0.9,2.4,3.2,3.4,8,3.6C183.2,288.3,184,288,184,287.3
		L184,287.3z M176.3,280.4c-2.3-0.6-2.2-0.7,2.5-2.1c2.9-0.9,3-0.9,2.5,1.2C180.9,281.1,180.1,281.3,176.3,280.4z M117.7,283.2
		c-0.1-0.4-0.6-0.8-1-0.8s-0.8,0.4-1,0.8s0.3,0.8,1,0.8S117.8,283.6,117.7,283.2z M139.3,271.8c4.2-0.5,4.3-0.6,4-2.4
		c-0.7-3.6-0.3-17.8,0.6-19.5c1.3-2.4-0.6-8.1-4.2-12.8c-1.6-2-3-4.2-3.2-4.8s-0.6,0.9-0.8,3.3c-0.3,2.4-1.3,8-2.3,12.4
		s-2.1,10.5-2.5,13.5s-1,7-1.3,8.8l-0.6,3.3l3-0.6C133.6,272.6,136.9,272.1,139.3,271.8L139.3,271.8z M155.8,269.7
		c4.9-0.4,5-0.5,8.5-4.4c2-2.2,3.6-4.4,3.6-4.9s1-1.9,2.2-3.1l2.2-2.2l-6.9-0.5c-7.1-0.5-16.9-2.3-18.4-3.5
		c-2-1.6-3.2,10.4-1.6,16.6c0.8,3.2,0.9,3.3,3.1,2.8C149.9,270.3,153.1,269.9,155.8,269.7L155.8,269.7z M127.4,255.1
		c-18.2-23.8-32.3-47.9-38.1-65.3c-0.9-2.8-1.8-5.2-1.9-5.4s-1.8,1.5-3.8,3.6c-3.5,3.8-3.6,4-2.4,5.7c25.9,40.7,46,68.2,47.6,65.1
		C129.3,258.1,128.9,257,127.4,255.1z M128.5,248.5c-3-4.6-6.4-11-8.6-16.4c-9-21.7-12.8-32.7-17.5-51.2l-2.4-9.6l-5.6,5.6l-5.6,5.6
		l2.8,7.8c2.9,8.1,10.4,23.6,15.4,31.8c3.6,6,16.7,24.9,20.2,29.3c2.4,3,2.6,3.1,2.9,1.6C130.2,251.9,129.5,249.9,128.5,248.5z
		 M159.1,251.5c-0.2-0.2-0.9-0.3-1.4-0.1c-0.6,0.2-0.4,0.4,0.4,0.4C158.9,252,159.3,251.8,159.1,251.5L159.1,251.5z M170.6,248.1
		c-2.5-3.3-4.5-8.8-3.9-11.1c0.3-1.3,0.4-1.3,0.9,0.1c2.8,7.1,4.5,10.1,7,12c1.5,1.2,3.1,2.2,3.6,2.2s0-0.7-1.1-1.6
		c-2.6-2-6.2-7-6.2-8.5c0-0.7,1.7,0.8,4.1,3.4c2.2,2.5,4.7,4.5,5.4,4.5c1.7,0,4.1-4.9,4.7-9.8c1.2-9.4,4.3-22.6,5.9-24.7
		c0.9-1.2,2.3-3.9,3.2-5.9c1.8-4.2,3.4-5.8,14.6-14.8c4.2-3.4,8.1-6.6,8.7-7.2c0.6-0.6,3.4-2.8,6.2-4.9c9.4-7.1,8.7-6.2,7.1-8.8
		l-1.4-2.2l-6.2,3.1c-3.4,1.7-7.8,4.1-9.8,5.3s-7.3,4.3-11.9,6.7c-9.9,5.4-13.4,8.8-17.4,16.9c-1.6,3.3-4.4,7.9-6.2,10.3
		s-4.4,6.7-5.8,9.5s-3.3,5.9-4.1,6.9l-1.6,1.8l0.5-1.8c0.8-3,5.4-12.5,7.3-15.1c1.5-2,1.7-2.6,0.9-3.8c-1-1.7-0.3-2.9,1-1.6
		c1,1,2,1.1,2,0.2c0-0.4-0.7-0.9-1.5-1.1s-1.5-0.9-1.5-1.5c0-1.2,0.4-1.3,2.3-0.3c0.8,0.4,1.6,0.6,1.8,0.4c0.2-0.2-0.7-0.9-2.1-1.6
		c-3.1-1.6-3-1.5-2.5-2.5c0.3-0.5,0.9-0.5,2,0c1.4,0.8,1.5,0.7,1-1.3c-0.3-1.1-1.8-4.7-3.4-8c-1.6-3.2-2.9-6.4-2.9-7
		c0-1.1-1.6-1.6-14.2-3.7c-3.6-0.6-6-0.8-6.3-0.3c-0.2,0.4-1,4.5-1.7,9.2s-1.9,12.6-2.7,17.6c-2,12.9-1.8,28.5,0.5,36.5
		c0.6,2,11.9,4.6,23.7,5.5l2,0.2L170.6,248.1z M149.1,249.5c0-0.2-0.5-0.5-1.1-0.7s-0.9-0.1-0.7,0.3
		C147.7,249.8,149.1,250.1,149.1,249.5z M131.9,244.9c0.3-1.5,1.1-6.9,1.9-12.1c1.8-12.2,3.2-14,4.3-5.7c0.5,3.7,3.6,10.4,4.8,10.4
		c0.2,0,0.2-2.5-0.1-5.6c-0.2-3.1-0.1-7.9,0.3-10.7s1.4-9.8,2.3-15.6c1.4-9.9,2-13.7,4.8-29.6c3.4-19.8,3.4-34.7-0.1-45.4l-1.1-3.4
		l-4.5,3.1c-2.5,1.7-5.8,3.5-7.4,4.1c-2,0.7-5,3.2-9.7,8.1l-6.8,7l0.8,11.9c0.8,12.1,1.6,22,3,37c0.9,9.7,1,15.7,0.3,15
		c-0.8-0.8-5-44.7-5.4-56.1c-0.1-2.4-0.3-4.6-0.4-4.8c-0.1-0.3-3,2.4-6.4,5.8l-6.1,6.3l5.3,21.8c2.9,12,6.7,26.1,8.3,31.3
		c3.1,9.8,3.5,12.4,2.2,12.9c-1.3,0.4,7.4,17.3,8.9,17.3C131.2,247.6,131.6,246.4,131.9,244.9L131.9,244.9z M117.5,216.2
		c-1.8-6.1-5.1-18.7-7.4-27.9c-2.2-9.2-4.4-18-4.8-19.6l-0.8-2.8l-1.5,1.5l-1.5,1.5l2.8,11.1c1.5,6.1,3.9,14.7,5.3,19.1
		c2.9,9.2,10.4,28.9,10.9,28.4C120.7,227.5,119.4,222.3,117.5,216.2L117.5,216.2z M184,200c3.7-7,6.7-10,12.5-13.1
		c2.9-1.5,9.4-5.2,14.4-8.2c8.8-5.2,17.5-9.6,19.2-9.6c1.8,0,4.7-3.5,5.9-7.1c0.7-2.1,1.8-4.2,2.4-4.6c1-0.6,0.8-0.7-1-0.3l-2.2,0.4
		l2.2-1.8c1.4-1.2,1.8-1.9,1.1-1.9c-0.8-0.1-0.7-0.2,0.3-0.6c1.2-0.5,1.4-1.5,1.6-8.1c0.6-15.8,1.8-47.9,2.1-56
		c0.2-4.6,0.5-13.4,0.7-19.6c0.2-6.2,0.5-14.1,0.7-17.5s0.5-12.2,0.8-19.6l0.4-13.5l-2.1,2.2c-4,4.2-66.7,69.8-70.9,74.2l-4.3,4.4
		l0.8,3.6c0.4,2,1.6,5.7,2.5,8.3c3.4,9.4,9.1,27.4,10.3,33c1,4.5,1.6,5.8,2.9,6.3c0.9,0.3,2.8,1.8,4.2,3.3c3.8,4,3,6-7,16.1
		c-4.7,4.8-6.6,7.3-7.5,10c-1.7,4.8-1.4,6.8,1.5,12.1c1.4,2.5,3,6.4,3.8,8.7c0.7,2.3,1.5,3.9,1.8,3.6
		C181.4,204.6,182.7,202.4,184,200L184,200z M172.1,180.4c0.7-1.4,1-2.8,0.7-3c-0.5-0.5-3.8-1.1-14-2.7c-6.3-1-6.6-0.9-7,2.8
		l-0.3,2.1l9.1,1.6c5,0.9,9.3,1.6,9.6,1.7C170.7,182.9,171.5,181.8,172.1,180.4z M170,172c2-2.7,2.1-4.7,0.1-2.2
		c-2.1,2.6-3,4.4-2.3,4.4C168.2,174.2,169.2,173.2,170,172L170,172z M174.1,171.6c2.5-3.3,1.4-3.3-1.3,0c-1.1,1.4-1.7,2.5-1.4,2.5
		S173,173,174.1,171.6z M167.5,169.9c1.5-1.9,2.7-3.9,2.7-4.4s0.3-1.4,0.7-2.1c1.2-2.3,3.7-8.8,3.7-9.6c0-0.5-0.5-0.3-1.2,0.4
		c-0.9,0.9-2.1,1.1-4.9,0.9c-2-0.2-4.3-0.6-5-0.9c-1.1-0.5-1.1-0.2,0.3,3c0.8,1.9,2,4.1,2.7,4.8c1,1.2,1,1.3-0.4,1.3
		c-1.9,0-4.9-2.4-7.6-6c-1.8-2.4-2.1-2.6-2.1-1.3c0,0.9-0.5,1.8-1,2c-0.7,0.3-1.2,2.2-1.5,6c-0.3,3.1-0.7,6.2-0.9,7
		c-0.3,1.1-0.1,1.3,1,1c0.8-0.2,3.3,0.1,5.7,0.6c2.4,0.5,4.5,1,4.7,1C164.6,173.4,166,171.9,167.5,169.9L167.5,169.9z M178.2,171.6
		c0.9-1,1.4-1.8,1-1.8s-1.5,0.8-2.4,1.8s-1.4,1.8-1,1.8S177.2,172.6,178.2,171.6z M243.7,163.3c3.1-4.4,3.3-5,1.7-7
		c-1-1.3-1.1-1.3-0.6,0.6c0.3,1.1,0.1,2-0.3,2s-2.2,1.3-4,2.9c-1.8,1.6-3.6,2.9-4,2.9s-0.9,0.8-1.2,1.8c-0.3,1-1,1.8-1.6,1.8
		c-1.5,0-2.1,1.8-1.1,3.6c0.8,1.5,0.9,1.4,4.5-1.6C239.2,168.7,242.2,165.5,243.7,163.3L243.7,163.3z M181.1,167.6
		c0-0.4-0.1-0.7-0.3-0.7s-0.5,0.3-0.8,0.7s-0.1,0.7,0.3,0.7S181.1,168,181.1,167.6L181.1,167.6z M174.2,166.2
		c-0.2-0.4-0.8-0.7-1.1-0.7c-0.4,0-0.7,0.3-0.7,0.7s0.5,0.7,1.1,0.7S174.4,166.6,174.2,166.2z M184.4,160.7c2-4.9,2-4.8,1-4.8
		c-0.7,0-4.4,7.4-4.4,8.9C181.1,166.8,182.9,164.6,184.4,160.7L184.4,160.7z M177.3,159.1c1.3-3.2,1.4-3.8,0.4-3.8
		c-1.5,0-4.8,7.4-3.7,8.2C175.1,164.1,175.4,163.7,177.3,159.1z M180.7,160c2-4.6,2.3-6.3,0.7-4.7c-1.4,1.4-4.1,8.7-3.2,8.7
		C178.7,164,179.8,162.2,180.7,160z M188,161c1.7-2.7,1.9-4.3,0.4-4.3c-0.3,0-1,1.2-1.5,2.7s-1.1,3.1-1.3,3.6
		C184.9,165,186.2,163.9,188,161z M237.8,162.2c0.5-0.6,0.6-1.1,0.2-1.1s-0.9,0.5-1.2,1.1c-0.2,0.6-0.3,1.1-0.2,1.1
		S237.3,162.8,237.8,162.2z M160.6,155.3c-1.5-3-1.8-5.1-0.8-5.1c0.3,0,1.9,0.7,3.4,1.5c4,2,7.7,1.9,9.8-0.3l1.7-1.8l1.4,1.7
		c1.1,1.4,2.2,1.8,5.3,2c5.1,0.3,4.5-0.5-1-1.6c-4.3-0.8-5.9-2.1-2.7-2.2c1.3,0,0.9-0.4-1.7-1.8c-3.4-1.8-5.9-4-4.4-4
		c0.4,0,0.6-0.4,0.5-0.9c-0.7-1.9,0.8-3,3-2.2c4.6,1.7,4.8,1.6,1.6-0.1c-1.9-1-3.6-2.2-3.9-2.6c-0.7-1.1,1.6-0.9,4,0.4l2.1,1.1
		l-1.1-3.8c-0.6-2.1-1.9-5.8-2.8-8.2s-2.2-6.5-2.9-9.1c-0.7-2.6-1.6-5.4-2-6.2s-1.3-3.5-2-6.1l-1.2-4.6l-7.3,7.4
		c-4,4.1-7.7,8-8.3,8.6c-0.6,0.7-3.7,3.9-6.9,7.3c-5.9,6.1-5.2,6.8,1.3,1.3c4.1-3.4,4-3.4,6.3,3.8c1.3,3.9,2.8,14.1,2.8,19.1
		c0,0.7,0.5,1.3,1.1,1.3s1.1,0.3,1.1,0.6c0,0.7,4.2,7.4,4.6,7.4C161.9,158.2,161.4,156.9,160.6,155.3L160.6,155.3z"/>
	<path id="path55" class="st0" d="M229.4,170.7c-5.9,2.9-11.7,5.8-17.3,9.2c-4.8,2.9-9.9,5.5-14.7,8.4c-4.5,2.6-8.5,6.2-11.1,10.7
		c-2,3.4-3.6,6.9-5.7,10.2c-1.9,3.2-4.3,6.1-6.1,9.3c-2.1,3.5-3.7,7.2-6.1,10.5c-0.5,0.7-1.1,1.4-1.7,2c0.7-3.5,2.4-6.7,4-10
		c1.3-2.7,2.7-5.3,4.5-7.7c0.5-0.6,0.8-1.5,0.3-2.3c-0.3-0.7-0.9-1.5-0.6-2.3c0.4-0.5,1,0.1,1.4,0.4c0.4,0.3,1,0.9,1.6,0.8
		c0.4-0.2,0.6-0.8,0.2-1.1c-0.7-0.8-2.1-0.8-2.6-1.9c-0.1-0.4-0.2-1,0.2-1.3c1.2,0.1,2.2,1.1,3.5,1.2c0.4,0,0.4-0.4,0.1-0.6
		c-1.3-1.1-3-1.6-4.4-2.7c-0.4-0.4,0.1-0.9,0.4-1.2c0.9-0.3,1.6,0.4,2.4,0.7c0.2,0.2,0.5,0,0.5-0.3c-0.1-1.6-0.8-3-1.4-4.5
		c-1.6-3.9-3.7-7.6-5-11.6c-0.1-0.4-0.1-0.9-0.6-1.1c-1.6-0.8-3.3-1-5-1.4c-3.9-0.7-7.7-1.5-11.6-2c-1-0.1-2.1-0.3-3.1,0
		c-0.6,0.3-0.5,1.1-0.7,1.6c-1.3,7.1-2.3,14.3-3.4,21.4c-0.8,5.2-1.6,10.5-1.8,15.8c-0.3,6.6-0.3,13.2,0.7,19.8
		c0.3,1.7,0.6,3.4,1.1,5c0.7,1,2,1.3,3,1.7c4.5,1.5,9.3,2.3,14,2.9c2.8,0.4,5.6,0.7,8.5,0.8c0.2-0.2-0.3-0.5-0.4-0.7
		c-1.6-2.2-3.4-4.4-4.4-6.9c-0.8-2-1.6-4.3-1.3-6.5c0.1-0.3,0.1-0.8,0.3-0.9c0.7,1.3,1.2,2.8,1.8,4.2c1.3,3,2.7,6.2,5.2,8.4
		c1.2,1,2.5,2,3.9,2.5c0.3,0.1,0.5-0.2,0.3-0.4c-0.8-1-2-1.7-2.8-2.7c-1.8-1.9-3.5-4-4.5-6.5c-0.1-0.2-0.3-0.7,0.1-0.5
		c1,0.5,1.8,1.5,2.6,2.3c1.9,1.8,3.6,3.9,5.8,5.4c0.5,0.3,1.1,0.5,1.6,0c1.4-1.1,2.1-2.9,2.7-4.5c1.3-3.4,1.4-7.2,2.1-10.8
		c1-5.7,2.2-11.3,4-16.8c0.4-1.3,1.1-2.4,1.8-3.4c1.4-2.2,2.3-4.6,3.5-6.8c1.7-3,4.6-5.2,7.1-7.5c5.2-4.3,10.5-8.5,15.7-12.9
		c4-3.3,8.3-6.3,12.3-9.6c0.5-0.5,1.4-1.1,1.3-1.9c-0.3-1-1.1-1.8-1.5-2.8C229.9,171.5,229.7,171,229.4,170.7L229.4,170.7z"/>
	<path id="path56" class="st0" d="M154.3,174c-0.7,0-1.4,0.2-1.8,0.7c-0.4,0.6-0.5,1.3-0.6,1.9c-0.1,0.9-0.2,1.9-0.3,2.8
		c0.1,0.2,0.4,0.1,0.6,0.2c6.1,1.1,12.2,2.2,18.2,3.2c0.5-0.2,0.7-0.7,1-1.1c0.7-1.1,1.3-2.4,1.6-3.7c0.1-0.3,0.1-0.8-0.3-0.9
		c-0.9-0.4-1.8-0.6-2.8-0.8c-4.2-0.8-8.4-1.5-12.6-2.1C156.3,174.2,155.3,174,154.3,174z"/>
	<path id="path57" class="st0" d="M174.3,153.5c-0.6,0.1-0.9,0.6-1.4,0.9c-0.8,0.7-1.9,0.7-2.9,0.7c-2.1-0.1-4.1-0.3-6.1-0.8
		c-0.4-0.1-0.8-0.3-1.2-0.3c-0.3,0.1-0.2,0.5-0.1,0.8c0.6,1.7,1.4,3.4,2.3,5.1c0.5,1,1.1,1.9,1.8,2.8c0.1,0.1,0.3,0.3,0.2,0.5
		c-0.6,0.2-1.3,0.1-1.9-0.1c-1.4-0.5-2.6-1.5-3.7-2.5c-1.5-1.4-2.6-3-3.8-4.6c-0.3-0.3-0.5-0.7-1-0.9c-0.3,0-0.3,0.4-0.3,0.6
		c0,0.7-0.2,1.5-0.7,2c-0.1,0.2-0.4,0.2-0.5,0.4c-0.5,0.6-0.6,1.4-0.8,2.1c-0.5,2.5-0.6,5.1-0.9,7.7c-0.1,1.2-0.3,2.4-0.6,3.5
		c-0.1,0.3,0.1,0.7,0.5,0.7c0.5,0,1-0.2,1.6-0.2c2.8,0,5.6,0.8,8.4,1.4c0.4,0.1,0.8,0.2,1.3,0.2c0.6-0.4,1-1,1.5-1.5
		c1.4-1.7,2.8-3.5,3.9-5.5c0.3-0.5,0.4-1,0.5-1.6c0.3-1.2,1-2.2,1.4-3.3c1-2.3,1.9-4.6,2.7-7c0.1-0.3,0.3-0.7,0.1-1
		C174.5,153.5,174.4,153.5,174.3,153.5L174.3,153.5z"/>
	<path id="path58" class="st0" d="M171.4,168.6c-0.4,0.1-0.6,0.4-0.9,0.7c-1,1.2-1.9,2.4-2.7,3.8c-0.1,0.3-0.4,0.7-0.2,1
		c0.2,0.3,0.5,0,0.7-0.1c1-0.8,1.7-1.8,2.4-2.8c0.4-0.7,0.8-1.4,1-2.2C171.7,168.8,171.6,168.6,171.4,168.6L171.4,168.6z"/>
	<path id="path59" class="st0" d="M175.4,169.1c-0.4,0.1-0.7,0.5-1.1,0.8c-1,1.1-2,2.2-2.8,3.5c-0.1,0.2-0.3,0.6-0.2,0.8
		c0.2,0.1,0.4-0.1,0.6-0.2c1-0.8,1.8-1.8,2.5-2.8c0.4-0.6,0.9-1.2,1.1-1.9C175.6,169.2,175.5,169.1,175.4,169.1z"/>
	<path id="path60" class="st0" d="M179.1,169.7c-0.7,0.2-1.2,0.7-1.7,1.1c-0.7,0.7-1.4,1.4-1.9,2.3c-0.1,0.2,0,0.5,0.2,0.4
		c0.8-0.2,1.4-0.9,2-1.4c0.6-0.6,1.2-1.2,1.6-2C179.4,170,179.3,169.7,179.1,169.7L179.1,169.7z"/>
	<path id="path61" class="st0" d="M177.8,155.2c-0.6,0-0.9,0.5-1.3,0.9c-1.1,1.4-1.8,3-2.4,4.7c-0.2,0.7-0.5,1.5-0.4,2.2
		c0.1,0.5,0.7,0.8,1.1,0.7c0.5-0.2,0.8-0.8,1-1.3c0.8-1.7,1.5-3.5,2.2-5.3c0.1-0.5,0.4-1.1,0.2-1.6
		C178.3,155.3,178,155.2,177.8,155.2L177.8,155.2z"/>
	<path id="path62" class="st0" d="M182.3,154.6c-0.5,0.1-0.8,0.5-1.1,0.9c-0.7,0.9-1.2,2-1.7,3.1c-0.6,1.5-1.2,3.1-1.5,4.7
		c0,0.2-0.1,0.6,0.2,0.8c0.3,0,0.4-0.3,0.6-0.5c1-1.3,1.6-2.9,2.3-4.4c0.5-1.3,1.1-2.6,1.4-3.9C182.6,155.1,182.6,154.6,182.3,154.6
		L182.3,154.6z"/>
	<path id="path63" class="st0" d="M185.6,155.9c-0.5,0-0.7,0.5-0.9,0.8c-1.1,1.8-2.1,3.7-2.9,5.7c-0.3,0.9-0.8,1.7-0.8,2.6
		c0,0.3,0.1,0.7,0.5,0.6c0.5-0.2,0.8-0.8,1.1-1.2c1.2-1.8,2-4,2.8-6c0.3-0.7,0.6-1.4,0.7-2.1C186.2,156,185.8,155.9,185.6,155.9
		L185.6,155.9z"/>
	<path id="path64" class="st0" d="M188.5,156.6c-0.3,0.1-0.4,0.4-0.6,0.6c-0.7,1.1-1,2.4-1.5,3.7c-0.3,1-0.7,1.9-1,2.9
		c-0.1,0.2,0.2,0.4,0.4,0.2c0.6-0.4,1.1-1.1,1.5-1.7c0.8-1.2,1.7-2.5,2.1-4c0.1-0.5,0.2-1.2-0.3-1.6
		C188.9,156.7,188.7,156.6,188.5,156.6z"/>
	<path id="path65" class="st0" d="M180.7,166.8c-0.4,0.1-0.6,0.4-0.8,0.7c-0.2,0.2-0.2,0.7,0.1,0.8c0.5,0.2,1.1-0.3,1.1-0.9
		C181.1,167.3,181.1,166.8,180.7,166.8z"/>
	<path id="path66" class="st0" d="M173,165.4c-0.6,0-1,0.9-0.5,1.3c0.4,0.4,1.1,0.5,1.6,0.2c0.3-0.2,0.3-0.5,0.1-0.8
		C173.9,165.7,173.5,165.4,173,165.4L173,165.4z"/>
	<path id="path67" class="st0" d="M153.2,135.2c0,0.4,0.1,0.8,0.2,1.1c0.7,4.2,1.2,8.4,1.4,12.7c0,0.6,0.6,1.2,1.2,1.2
		c0.4,0,0.9,0.1,1,0.6c0.4,1,0.9,1.9,1.5,2.8c0.9,1.5,1.8,3,2.9,4.3c0.1,0.1,0.4,0.4,0.4,0.1c-0.1-0.7-0.5-1.3-0.7-2
		c-0.7-1.5-1.5-3-1.7-4.7c0-0.4-0.1-0.9,0.2-1.1c0.4-0.1,0.7,0.1,1.1,0.2c2.2,0.9,4.3,2.3,6.7,2.5c1.6,0.2,3.3,0,4.7-0.9
		c1-0.7,1.7-1.7,2.6-2.5c0.7,0.8,1.3,1.8,2.2,2.5c1.1,0.8,2.5,0.9,3.9,1.1c1.2,0.1,2.4,0.2,3.7,0c0.2,0,0.5-0.1,0.4-0.4
		c-0.3-0.4-0.8-0.4-1.3-0.6c-2.2-0.7-4.5-0.9-6.6-1.7c-0.3-0.2-0.8-0.3-1-0.7c0-0.3,0.4-0.3,0.6-0.3c0.5-0.1,1.1,0,1.6-0.2
		c0.2-0.2,0-0.4-0.2-0.5c-1.3-0.9-2.7-1.5-4-2.4c-1-0.6-2-1.3-2.7-2.2c-0.1-0.1-0.3-0.5,0-0.5s0.8-0.2,0.8-0.5
		c0-0.6-0.3-1.2-0.1-1.8c0.2-0.8,1.1-1.1,1.8-1.1c1.1,0.1,2.1,0.6,3.1,0.9c0.6,0.2,1.2,0.5,1.8,0.5c0.2-0.1,0-0.3-0.1-0.4
		c-1.8-1.1-3.7-2-5.3-3.2c-0.2-0.2-0.6-0.5-0.6-0.8c0.2-0.3,0.6-0.2,0.9-0.2c1.7,0.2,3.2,1.1,4.7,1.8c0.2,0.1,0.4,0.3,0.6,0.2
		c0.1-0.2-0.1-0.4-0.1-0.6c-0.3-1.1-0.6-2.2-1-3.3c-0.3-0.1-0.7,0-1,0C168.9,135.2,161.1,135.2,153.2,135.2L153.2,135.2L153.2,135.2
		z"/>
	<path id="path68" class="st0" d="M166.8,101.3c-4.6,4.7-9.2,9.4-13.8,14.2c-2.7,2.8-5.3,5.6-8,8.4c-1.5,1.6-3.1,3.2-4.4,5
		c-0.1,0.3-0.4,0.5-0.3,0.8c0.2,0.2,0.5,0,0.7-0.1c1.6-0.9,3-2.1,4.4-3.2c1-0.8,1.9-1.6,3-2.3c0.4-0.2,1.1-0.3,1.4,0.1
		c0.6,0.7,0.9,1.6,1.2,2.5c0.8,2.3,1.5,4.6,2,7c0.1,0.5,0.2,1,0.3,1.5c0.3,0.1,0.6,0,0.9,0c7.8,0,15.6,0,23.4,0c0.2-0.1,0-0.4,0-0.6
		c-0.8-2.6-1.7-5.2-2.7-7.7c-1.2-3.3-2.3-6.6-3.1-10c-0.5-1.9-1.1-3.8-1.9-5.6c-1-2.4-1.5-5-2.2-7.5c-0.2-0.9-0.4-1.8-0.7-2.6
		C166.9,101.3,166.8,101.3,166.8,101.3L166.8,101.3z"/>
	<path id="path70" class="st0" d="M148.7,127.2c-4,2.5-7.7,5.4-12.1,7.2c-4.1,2.2-7.2,5.9-10.5,9.1c-1.9,2-3.9,3.9-5.7,5.9
		c1.1,17.1,2.5,34.2,4,51.3c0.2,4,0.8,7.9,0.4,11.9c0,0.5-0.2,0.5-0.3,0c-1.1-6.7-1.6-13.5-2.4-20.3c-1.3-13.1-2.4-26.2-3.1-39.4
		c0.1-0.6-0.5-0.7-0.8-0.3c-3.4,2.9-6.4,6.1-9.5,9.2c-0.8,0.9-1.8,1.7-2.4,2.7c4.8,19.6,9.4,39.2,15.3,58.5c0.5,2.2,1.4,4.4,1.1,6.6
		c-0.4,0.5-0.9,1.2-0.5,1.9c1.8,4.9,4.2,9.4,6.9,13.9c0.6,0.7,1,1.9,2,2.2c0.9-0.3,0.7-1.6,1-2.3c1.4-7.1,2-14.3,3.7-21.3
		c0.3-0.6,0.3-1.6,1-1.8c1,1.1,0.9,2.8,1.3,4.2c0.7,3.7,2,7.4,4.2,10.5c0.8,1.5,1.2,0.2,1-0.8c0-4.7-0.1-9.5,0-14.2
		c2.1-14.2,4.2-28.4,6.6-42.6c1.5-9.2,3.1-18.5,3-27.8c0.2-6.6-0.3-13.3-2.1-19.7c-0.5-1.5-0.8-3.2-1.6-4.6
		C148.9,127.1,148.8,127.1,148.7,127.2L148.7,127.2z"/>
	<path id="path71" class="st0" d="M104.5,166.1c-1.2,0.6-2,1.9-3,2.8c0.4,2.6,1.3,5.2,1.9,7.8c2.9,11.7,6,23.3,10.3,34.6
		c2,5.3,3.9,10.7,6.3,15.8c0.2,0.5,0.7,0,0.5-0.4c-2-8.2-4.6-16.3-6.7-24.5c-3.1-11.9-5.9-23.9-9-35.9
		C104.8,166.2,104.6,166.1,104.5,166.1z"/>
	<path id="path72" class="st0" d="M99.8,171.4c-3.7,3.6-7.3,7.3-11,10.9c0.4,2,1.4,3.9,2,5.9c3.5,9.9,8.2,19.3,13.1,28.5
		c4.9,8.8,10.8,17,16.4,25.2c2.8,3.9,5.4,7.9,8.6,11.5c0.3,0.6,1.2,0.5,1.1-0.3c0.1-3-2-5.3-3.3-7.8c-5.5-9.1-9.1-19.1-13-28.9
		c-5.2-13.2-9-26.8-12.4-40.5c-0.4-1.5-0.7-3.1-1.3-4.6C99.9,171.5,99.8,171.4,99.8,171.4L99.8,171.4z"/>
	<path id="path73" class="st0" d="M87.3,184.5c-1.6,1-2.8,2.7-4.1,4c-0.9,1.2-2.5,2.3-2.6,3.9c1,2.6,2.8,4.7,4.2,7.1
		c10.7,16.5,21.5,33,33.3,48.7c2.9,3.6,5.6,7.4,9.1,10.4c0.5,0.5,1.7,1,1.9,0c0.1-1.5-1.2-2.7-1.9-3.9
		c-12.4-16.6-24.1-33.9-32.8-52.7c-2.7-5.6-4.6-11.5-6.8-17.3C87.5,184.5,87.4,184.5,87.3,184.5L87.3,184.5z"/>
	<path id="path74" class="st0" d="M136.3,232.3c-0.8,3.1-1,6.4-1.7,9.6c-1.6,7.7-3.2,15.4-4.3,23.2c-0.4,2.8-1,5.5-1.3,8.3
		c0.7,0.4,1.6-0.2,2.4-0.2c3.8-0.8,7.7-1.1,11.5-2c0.9-0.5,0.3-1.9,0.4-2.7c-0.1-5.9-0.5-11.9,0.5-17.8c1.2-3.2,0-6.6-1.4-9.5
		c-1.6-3.2-4-5.8-5.8-8.9C136.5,232.2,136.4,232.2,136.3,232.3L136.3,232.3z"/>
	<path id="path75" class="st0" d="M146.7,251c-0.9,0.2-1,1.4-1.3,2.2c-0.8,3.7-0.5,7.5-0.5,11.3c0.2,2,0.5,4.1,1.5,5.9
		c0.7,1,2,0.2,3,0.2c3.4-0.6,6.9-0.6,10.2-1.3c2.5-0.7,4-3.1,5.7-4.8c1.5-1.5,2.5-3.4,3.5-5.2c1-1.5,2.5-2.7,3.7-4
		c-0.6-0.4-1.5-0.1-2.3-0.2c-7.3-0.5-14.6-1.1-21.6-3.2C147.9,251.5,147.4,251.1,146.7,251L146.7,251z"/>
	<path id="path76" class="st0" d="M169.6,263.5c-1.5,0.5-2.4,1.9-3.6,2.9c-1.6,1.5-2.9,3.3-4.8,4.4c-1.3,0.4-2.7-0.2-3.9,0.2
		c-0.2,0.7,0.9,1,1.3,1.2c1.2,0.4,2.6,0.9,3.8,0.3c1.1-0.7,0.8-2.4,1.9-3.1c0.6,0.1,0.2,1.2,0.3,1.6c-0.3,2.3-0.9,4.7-0.1,6.9
		c1.1,1.7,3.2,2.1,4.8,3.2c1.7,0.9,3.4,1.9,4,3.8c1.3,2.7,4.6,3.4,7.3,3.3c1-0.2,2.4,0.3,3.2-0.5c0.5-0.9,0.1-2.1-0.5-2.9
		c-1.3-0.9-3,0-4.5,0c-1.9,0.1-3.9-1-5-2.6c0.1-0.5,0.9,0.1,1.2,0.1c2.6,0.8,5.3,0.1,7.9,0c0.4-0.8,0-2,0.1-3
		c-0.2-2.1,0.1-4.2-0.6-6.2c-0.6-0.8-2.2-0.1-2.3-1.3c0-1.1-1.5-0.9-2.2-0.6c-0.9,0.3-1.4,1.2-1.6,2.1c-0.5,0.4-1.1-0.6-1-1.1
		c-0.1-1.9,1.7-2.9,3-3.9c1.4-1.1,0.3-3.4-1-4.1c-3.7,1.1-6.7,3.8-10.1,5.6c-0.3,0.1-1.3,0.5-1.3-0.1c0.9-1.8,3-2.6,4.4-4
		c0.6-0.5,1.4-1.2,0.3-1.7C170.3,263.9,170,263.5,169.6,263.5L169.6,263.5z M181.1,277.8c0.7,0,0.2,1,0.2,1.3
		c-0.2,0.8-0.7,1.7-1.6,1.6c-1.5-0.1-3.3-0.2-4.6-0.9C176.9,278.8,179,278.3,181.1,277.8C181,277.8,181,277.8,181.1,277.8
		L181.1,277.8z"/>
	<path id="path77" class="st0" d="M155.7,272.7c-0.9,0.5-0.8,1.8-0.8,2.7c-0.1,3.8,3.1,6.8,6.4,8.1c2.7,0.9,5,2.5,7,4.6
		c2.6,2.4,5.1,5.4,8.8,6c3,0.7,6.2,0.6,9.1,1.8c0.3,0.3-1.2,0.1-1,0.2c-3.6-0.3-7.3-0.5-10.7-1.9c-4-1.8-6.7-5.5-10.3-7.9
		c-1.6-1.1-3.3-2.3-5.3-2.5c-1.1-0.2-1.7-1.5-2.9-1.4c-1.6,1-2.6,2.8-3.9,4.2c0.5,1.2,1.6,2.1,2.5,3.1c4.2,4.7,10.1,7.5,16.2,9.1
		c4.5,1.3,9.3,2.7,13.9,1.1c2-0.6,4.1-2.3,3.7-4.6c-0.3-2-1.4-4.3-3.4-5.1c-3.8-0.7-8,0.1-11.5-1.9c-1.3-0.7-1.8-2.2-2-3.5
		c-0.8-1.7-2.9-2.1-4.4-2.9c-1.8-0.8-3.7-1.6-4.4-3.6c-0.7-1.5-1.3-3.7-3.3-3.8C157.8,274.5,156.9,273.2,155.7,272.7L155.7,272.7
		L155.7,272.7z"/>
	<path id="path82" class="st0" d="M147.4,248.5c-0.3,0-0.5,0.2-0.4,0.5c0.2,0.5,0.7,0.8,1.2,1c0.3,0.1,0.7,0.1,1-0.1
		c0.1-0.2,0-0.5-0.2-0.6C148.5,248.8,148,248.6,147.4,248.5L147.4,248.5L147.4,248.5z"/>
	<path id="path83" class="st0" d="M158.4,251.2c-0.4,0-0.9,0.1-1.2,0.4c-0.2,0.2,0,0.4,0.2,0.5c0.4,0.1,0.9,0.1,1.4,0.1
		c0.2,0,0.6-0.2,0.5-0.5C159.2,251.3,158.7,251.2,158.4,251.2L158.4,251.2z"/>
	<path id="path84" class="st0" d="M120.4,227.1c-0.1,0-0.1,0.1-0.2,0.1c-0.2,0-0.2,0.2-0.1,0.4c0.1,0.1,0.2,0.4,0.4,0.3
		c0.2,0,0.2-0.2,0.2-0.3s0-0.3-0.1-0.4C120.6,227,120.5,227,120.4,227.1L120.4,227.1z"/>
	<path id="path85" class="st0" d="M116.6,289.9c-0.7,0.3-1.1,1-1.7,1.4c-1.9,1.4-3.9,2.9-6.1,4c-0.6,0.2-1.3,0.2-1.6,0.8
		c-1.3,1.8-1.3,4.1-1.7,6.2c-0.3,2.3-0.9,4.6-1.5,6.8c-0.5,2.2-0.2,4.4,0.8,6.4c1.5,3.2,3.9,6.3,7.3,7.5c2.1,0.8,4.6,0.2,6.7,1.1
		c2.2,0.6,4.4,0.6,6.7,0.8c7.7,0.4,15.5,0.2,23.2,1.4c1.7,0.2,3.3,0.6,5,0.6c1.7-0.2,3.2-1,4.8-1.6c5.2-2.1,10.6-4,15.4-7.1
		c2.8-1.7,5.3-4.2,6.4-7.3c0.4-1.2,0.8-2.4,0.9-3.6c0-0.7-0.8-0.9-1.4-0.9c-2.7-0.1-5.3-0.4-7.9-1.2c-5.4-1.5-10.6-3.7-15.4-6.7
		c-2.4-1.5-4.4-3.4-6.1-5.6c-0.3-0.6-0.8-0.1-1,0.3c-1.3,1.8-2.5,3.6-4.1,5.1c-1.1,1.1-0.6,2.7-1.2,4c-1.3,2.8-3.6,4.9-6.1,6.6
		c-2.4,1.5-5.2,2.8-8.1,2.5c-3.8-0.4-7.7-1.4-11.3-2.6c-1.3-0.5-2.8-1-3.8-2c-1.3-1.5-1.1-3.7-0.4-5.4c0.5-1.2,1.4-2.3,2.2-3.3
		c1-1.7,0.8-3.8,0.8-5.8c-0.1-0.7,0-1.4-0.3-2C116.8,289.9,116.8,289.9,116.6,289.9L116.6,289.9z"/>
	<path id="path86" class="st0" d="M131.8,295c-0.6,0.1-0.4,0.9-0.2,1.3c0.8,1.6,2.3,2.9,2.6,4.8c0.2,2,0.7,4,1.7,5.8
		c0.2,0.4,0.7,0.8,1.1,0.4c1.1-0.7,2.3-1.4,3.1-2.4c0.5-0.9-0.1-1.8-0.4-2.6c-0.7-1.8-2-3.5-3.8-4.4c-1.3-0.8-2.4-1.9-3.7-2.7
		C132.1,295.1,132,295,131.8,295L131.8,295z"/>
	<path id="path87" class="st0" d="M186.9,305.4c-1,0.3-1.6,1.3-2.1,2.2c-0.6,1.1-0.3,2.4-0.8,3.6c-0.8,2.6-2.4,4.8-4.3,6.7
		c-2.5,2.5-5.6,4.7-9.1,5.5c-1.7,0.3-3.4,0.2-5,0.7c-2.6,0.6-4.9,2.2-7.4,3c-2.2,0.8-4.6,1.3-7,1.2c-1.5,0.1-3-0.5-4.5-0.6
		c-0.5,0.1-0.4,0.7-0.1,0.9c1,1.1,2.6,1.1,4,1.2c3.6,0.3,7.3,0.3,10.9,1.3c1.9,0.5,4,1.1,5.9,0.5c2.2-0.7,4-2.3,6-3.5
		c2.1-1.4,4.4-2.5,6.9-3.2c2.8-0.8,5-2.8,7.2-4.5c0.3-0.6,0-1.3,0.1-2c0-3.9,0.1-7.9-0.1-11.8C187.6,306.2,187.5,305.4,186.9,305.4
		L186.9,305.4z"/>
	<path id="path90" class="st0" d="M150.7,289.3c-0.6,0.1-0.2,0.8,0,1.1c2.9,3.9,6.7,7.1,11.1,9.2c5.2,2.6,11.1,3.9,16.9,4.3
		c2.2,0.2,4.4,0.3,6.6,0c0.5-0.2,1.2-0.2,1.4-0.8c-0.1-0.6-0.9-0.5-1.3-0.5c-3.3-0.1-6.7,0.1-9.9-0.2c-7.2-0.9-14.1-4-19.6-8.9
		c-1.6-1.4-3.1-2.9-4.9-4.1C150.9,289.3,150.8,289.3,150.7,289.3L150.7,289.3z"/>
	<path id="path91" class="st0" d="M244.6,155.1c-0.6,0.2-0.2,0.9-0.1,1.3c0.1,0.7,0.5,1.5,0.1,2.2c-1.7,0.8-3.1,2.2-4.6,3.3
		c-1.2,1-2.4,2-3.8,2.6c-1.2,0.9-0.9,2.8-2.2,3.4c-0.9,0-1.8,0.6-1.9,1.5c-0.2,1.2,0.3,2.4,1.1,3.3c0.7,0.5,1.5-0.2,2.1-0.6
		c3.1-2.4,5.8-5.2,8.2-8.2c1.1-1.6,2.4-3.1,3.1-4.9c0.5-1.3-0.4-2.5-1.2-3.5C245.1,155.5,244.9,155.2,244.6,155.1L244.6,155.1z"/>
	<path id="path92" class="st0" d="M237.9,160.9c-0.9,0.2-1.4,1.2-1.6,2c-0.2,0.4,0.2,0.9,0.6,0.5c0.6-0.6,1.3-1.1,1.6-1.9
		C238.5,161.1,238.3,160.8,237.9,160.9z"/>
	<path id="path93" class="st0" d="M163.1,105c-5.4,5.6-10.8,11.1-16.2,16.8c-2,2.1-4.1,4.2-5.9,6.5c-0.3,0.4-0.8,0.8-0.8,1.4
		c0.1,0.4,0.6,0.1,0.8,0c1.9-1.2,3.5-2.6,5.3-4c0.8-0.6,1.5-1.4,2.5-1.7c0.7-0.1,1.1,0.6,1.3,1.1c0.8,1.9,1.4,3.8,2,5.8
		c1,3.9,1.6,7.9,2.1,11.8c0.3,2.1,0.4,4.3,0.5,6.4c0,0.8,0.8,1.3,1.5,1.3c0.3,0,0.6,0.2,0.7,0.6c0.9,2,2.1,3.9,3.4,5.8
		c0.4,0.5,0.7,1.2,1.3,1.6c0.3,0.1,0.2-0.4,0.2-0.5c-0.7-2.2-2.1-4.2-2.4-6.5c0-0.3,0-0.8,0.3-0.9c0.9,0.2,1.7,0.7,2.6,1
		c1.9,0.9,3.8,1.8,5.9,1.8c1.7,0.1,3.6-0.4,4.8-1.8c0.6-0.5,1.1-1.1,1.7-1.7c0.9,1.1,1.7,2.5,3.1,3c1.9,0.7,4,0.7,6,0.6
		c0.4-0.1,0.9,0,1.1-0.4c-0.1-0.4-0.5-0.5-0.8-0.6c-2.4-0.9-5.1-1-7.4-2.1c-0.2-0.1-0.5-0.2-0.6-0.5c0.7-0.4,1.5-0.1,2.2-0.5
		c0.3-0.2-0.1-0.6-0.3-0.7c-1.9-1.2-3.9-2.1-5.6-3.5c-0.4-0.4-1-0.8-1.2-1.3c0.2-0.2,0.6-0.1,0.7-0.3c0.3-0.5,0-1.1,0-1.6
		c-0.1-0.8,0.7-1.5,1.5-1.5c1.2,0,2.2,0.5,3.4,0.9c0.7,0.2,1.3,0.5,2,0.6c0.3-0.1-0.1-0.4-0.2-0.5c-1.8-1.1-3.8-2-5.4-3.4
		c-0.1-0.1-0.5-0.5-0.2-0.6c0.9-0.2,1.9,0.2,2.7,0.5c1.1,0.4,2.1,1,3.1,1.4c0.3-0.1,0.1-0.5,0.1-0.7c-1.2-4.3-2.7-8.6-4.3-12.8
		c-1.2-3.4-2.2-6.9-3.1-10.4c-0.5-1.8-1.3-3.5-1.9-5.3c-0.6-1.7-1-3.4-1.5-5.1c-0.3-0.2-0.7,0-1.1-0.1
		C165.6,105,164.3,104.9,163.1,105L163.1,105z"/>
	<path id="path94" class="st0" d="M148.8,127.1c-4,2.4-7.7,5.3-12.1,7.1c-2.5,1.3-4.7,3.3-6.7,5.3c-3.2,3.2-6.5,6.4-9.6,9.8
		c0.2,3.6,0.5,7.2,0.7,10.9c1,14.1,2.2,28.1,3.3,42.2c0.1,0.7,0.1,1.4,0.2,2c7,0,14,0,21,0c0.3-0.5,0.2-1.3,0.4-1.9
		c1.5-9.9,3.2-19.7,4.7-29.5c1.1-7.1,2-14.3,2-21.5c0-3.7,0.1-7.4-0.4-11.1c-0.5-4.3-1.5-8.6-3.1-12.7
		C149.1,127.5,149.1,127.1,148.8,127.1L148.8,127.1z"/>
	<path id="path95" class="st0" d="M148.9,127c-0.1,0-0.2,0.1-0.1,0.2c0.1,0,0.1,0.1,0.2,0.1c0.1,0.1,0.2-0.1,0.1-0.2
		C149.1,127.1,149,126.9,148.9,127L148.9,127z"/>
</g>
</svg>
